<svg xmlns="http://www.w3.org/2000/svg" xmlns:xlink="http://www.w3.org/1999/xlink" version="1.1" x="0px" y="0px" viewBox="0 0 512 512" style="enable-background:new 0 0 512 512;" xml:space="preserve"><g><g><path d="M101.9,272.2c3.1,0,5.7-2.5,5.7-5.7c0-3.1-2.6-5.7-5.7-5.7c-3.1,0-5.7,2.5-5.7,5.7    C96.2,269.7,98.7,272.2,101.9,272.2z"/><path d="M347.8,161.4c3.1,0,5.7-2.5,5.7-5.7c0-3.1-2.5-5.7-5.7-5.7c-3.1,0-5.7,2.5-5.7,5.7    C342.1,158.8,344.7,161.4,347.8,161.4z"/><path d="M420.2,268.9l2.9,9.4l2.9-9.4c0.4-1.1,1.2-2,2.4-2.4l9.4-2.9l-9.4-2.9c-1.1-0.4-2-1.2-2.4-2.4l-2.9-9.4    l-2.9,9.4c-0.4,1.1-1.2,2-2.4,2.4l-9.4,2.9l9.4,2.9C419,266.9,419.9,267.8,420.2,268.9z"/><path d="M150.3,229.7l2.9,9.4l2.9-9.4c0.4-1.1,1.2-2,2.4-2.4l9.4-2.9l-9.4-2.9c-1.1-0.4-2-1.2-2.4-2.4l-2.9-9.4    l-2.9,9.4c-0.4,1.1-1.2,2-2.4,2.4l-9.4,2.9l9.4,2.9C149.1,227.7,150,228.5,150.3,229.7z"/><path d="M486,389h-53c13,0,23.5-10.5,23.5-23.5V344c0-10-7.4-14.5-19.5-20.8c-1.9-1-3.9-2-5.8-3.1l-172.3-96.3    c0,0,0,0,0-0.1c0.2-9.7,1-14.5,1.6-16.9c0.9-3.3,2.2-6.1,4-8.5c1.9-2.6,6.2-6.8,12.6-12.5c10.4-9.3,17.3-16.9,20.9-23.5    c3.7-6.7,5.6-14.1,5.6-22c0-13.7-5.3-25.4-15.7-35C277.4,95.8,263.5,91,246.3,91c-16.3,0-29.6,4.5-39.6,13.4    c-10,8.8-16.1,21.7-18.1,38.2c-0.2,2,1.2,3.8,3.1,4c2,0.2,3.8-1.2,4-3.1c1.8-14.7,7.1-26,15.7-33.7c8.7-7.7,20.4-11.6,34.8-11.6    c15.6,0,27.6,4.1,36.7,12.4c9,8.3,13.4,18,13.4,29.7c0,6.7-1.6,12.9-4.7,18.5c-3.2,5.7-9.7,13-19.4,21.6    c-6.9,6.1-11.4,10.6-13.7,13.6c-2.3,3.1-4,6.8-5.1,10.9c-1.1,4-1.7,10.3-1.8,18.6c0,0.1,0,0.1,0,0.2L80.8,320.1    c-2,1.1-4,2.2-5.9,3.2c-12,6.4-19.3,10.8-19.3,20.7v21.5c0,13,10.5,23.5,23.5,23.5H26c-2,0-3.6,1.6-3.6,3.6s1.6,3.6,3.6,3.6h460    c2,0,3.6-1.6,3.6-3.6S488,389,486,389z M298.1,263.3c1-1.7,3.2-2.4,4.9-1.4l90.3,50.5c1.7,1,2.4,3.2,1.4,4.9    c-0.7,1.2-1.9,1.8-3.1,1.8c-0.6,0-1.2-0.1-1.8-0.5l-90.3-50.5C297.7,267.2,297.1,265,298.1,263.3z"/><path d="M393.8,413.8H118.2c-2,0-3.6,1.6-3.6,3.6s1.6,3.6,3.6,3.6h275.7c2,0,3.6-1.6,3.6-3.6    S395.8,413.8,393.8,413.8z"/></g></g></svg>