<svg  xmlns="http://www.w3.org/2000/svg" version="1.1" x="0px" y="0px" viewBox="0 0 100 100"><g transform="translate(0,-952.36218)"><path style="font-size:medium;font-style:normal;font-variant:normal;font-weight:normal;font-stretch:normal;text-indent:0;text-align:start;text-decoration:none;line-height:normal;letter-spacing:normal;word-spacing:normal;text-transform:none;direction:ltr;block-progression:tb;writing-mode:lr-tb;text-anchor:start;baseline-shift:baseline;opacity:1;color:#000000;fill:#000000;fill-opacity:1;stroke:none;stroke-width:3.99999976000000010;marker:none;visibility:visible;display:inline;overflow:visible;enable-background:accumulate;font-family:Sans;-inkscape-font-specification:Sans" d="M 18.9375 12 A 2.0001999 2.0001999 0 0 0 17.4375 12.9375 L 6.28125 31.1875 A 2.0001999 2.0001999 0 0 0 6.03125 32.53125 L 6.03125 70.40625 A 2.0001999 2.0001999 0 0 0 8.03125 72.40625 L 38.8125 72.40625 A 2.0001999 2.0001999 0 1 0 38.8125 68.40625 L 10.03125 68.40625 L 10.03125 34.21875 L 68.03125 34.21875 L 68.03125 46.15625 C 67.979956 46.199543 67.925563 46.237055 67.875 46.28125 C 64.943238 43.7294 60.818116 42.67717 57.53125 42.65625 A 2.0001999 2.0001999 0 0 0 57.5 42.65625 C 52.485737 42.65625 48.429634 44.49825 45.75 47.5 C 43.070366 50.5017 41.78125 54.54055 41.78125 58.84375 C 41.78125 65.80525 46.951261 70.86245 52.34375 75.15625 C 57.736239 79.45015 63.632655 83.3142 66.25 87.125 A 2.0001999 2.0001999 0 0 0 69.53125 87.125 C 72.148597 83.3142 78.076262 79.45015 83.46875 75.15625 C 88.861238 70.86245 94 65.80515 94 58.84375 C 94 54.54055 92.710886 50.5017 90.03125 47.5 C 87.351614 44.49825 83.295513 42.65625 78.28125 42.65625 C 76.356211 42.668291 74.135989 43.065461 72.03125 43.875 L 72.03125 32.21875 A 2.0001999 2.0001999 0 0 0 71.75 31.1875 L 60.59375 12.9375 A 2.0001999 2.0001999 0 0 0 58.90625 12 L 19.125 12 A 2.0001999 2.0001999 0 0 0 18.9375 12 z M 20.25 16 L 57.78125 16 L 60.4375 20.375 L 54.21875 20.375 A 2.0001999 2.0001999 0 0 0 54.03125 20.375 A 2.0021961 2.0021961 0 1 0 54.21875 24.375 L 62.875 24.375 L 66.4375 30.21875 L 11.59375 30.21875 L 15.15625 24.375 L 23.8125 24.375 A 2.0001999 2.0001999 0 1 0 23.8125 20.375 L 17.59375 20.375 L 20.25 16 z M 57.5 46.65625 C 60.304689 46.67405 64.858092 48.2437 66.28125 50.1875 A 2.0001999 2.0001999 0 0 0 69.5 50.1875 C 70.92321 48.2436 75.476957 46.67377 78.28125 46.65625 C 82.362233 46.65625 85.155885 48.02045 87.0625 50.15625 C 88.969115 52.29215 90 55.32925 90 58.84375 C 90 63.77955 86.121583 67.92835 80.96875 72.03125 C 76.515907 75.57695 71.408311 78.9021 67.875 82.9375 C 64.341957 78.9091 59.259658 75.57235 54.8125 72.03125 C 49.65967 67.92835 45.78125 63.77955 45.78125 58.84375 C 45.78125 55.32925 46.812136 52.29215 48.71875 50.15625 C 50.625364 48.02045 53.419017 46.65625 57.5 46.65625 z M 55.53125 48.75 A 2.0001999 2.0001999 0 0 0 54.65625 49 C 50.57249 51.1607 48.53125 55.5428 48.53125 60.1875 A 2.0001999 2.0001999 0 1 0 52.53125 60.1875 C 52.53125 56.648 53.87949 53.91785 56.5 52.53125 A 2.0001999 2.0001999 0 0 0 55.53125 48.75 z " transform="translate(0,952.36218)"/></g></svg>