<svg xmlns="http://www.w3.org/2000/svg" xmlns:xlink="http://www.w3.org/1999/xlink" version="1.1" x="0px" y="0px" viewBox="0 0 59 60" style="enable-background:new 0 0 59 60;" xml:space="preserve"><title>78 -Apps- (Outline)</title><desc>Created with Sketch.</desc><g><g transform="translate(-959.000000, -1190.000000)"><g transform="translate(959.000000, 1190.000000)"><path d="M43,58H17c-1.1,0-2-0.9-2-2V4c0-1.1,0.9-2,2-2H43c1.1,0,2,0.9,2,2V56C45,57.1,44.1,58,43,58z M43,60     c2.2,0,4-1.8,4-4V4c0-2.2-1.8-4-4-4H17c-2.2,0-4,1.8-4,4V56c0,2.2,1.8,4,4,4H43z"/><path d="M13,52h34V6H13V52z M15,8h30v42H15V8z"/><path d="M29,5h5c0.6,0,1-0.4,1-1s-0.4-1-1-1h-5c-0.6,0-1,0.4-1,1S28.4,5,29,5z"/><path d="M25,5h1c0.6,0,1-0.4,1-1s-0.4-1-1-1h-1c-0.6,0-1,0.4-1,1S24.4,5,25,5z"/><path d="M12,10v1c0,0.6,0.4,1,1,1s1-0.4,1-1v-1c0-0.6-0.4-1-1-1S12,9.4,12,10z"/><path d="M12,14v1c0,0.6,0.4,1,1,1s1-0.4,1-1v-1c0-0.6-0.4-1-1-1S12,13.4,12,14z"/><path d="M12,18v1c0,0.6,0.4,1,1,1s1-0.4,1-1v-1c0-0.6-0.4-1-1-1S12,17.4,12,18z"/><path d="M32,55c0,1.1-0.9,2-2,2s-2-0.9-2-2s0.9-2,2-2S32,53.9,32,55z M34,55c0-2.2-1.8-4-4-4s-4,1.8-4,4     s1.8,4,4,4S34,57.2,34,55z"/><path d="M20,18h4c0.6,0,1-0.4,1-1v-4c0-0.6-0.4-1-1-1h-4c-0.6,0-1,0.4-1,1v4C19,17.6,19.4,18,20,18z M21,16v-2h2     v2H21z"/><path d="M28,18h4c0.6,0,1-0.4,1-1v-4c0-0.6-0.4-1-1-1h-4c-0.6,0-1,0.4-1,1v4C27,17.6,27.4,18,28,18z M29,16v-2h2     v2H29z"/><path d="M20,26h4c0.6,0,1-0.4,1-1v-4c0-0.6-0.4-1-1-1h-4c-0.6,0-1,0.4-1,1v4C19,25.6,19.4,26,20,26z M21,24v-2h2     v2H21z"/><path d="M28,26h4c0.6,0,1-0.4,1-1v-4c0-0.6-0.4-1-1-1h-4c-0.6,0-1,0.4-1,1v4C27,25.6,27.4,26,28,26z M29,24v-2h2     v2H29z"/><path d="M36,18h4c0.6,0,1-0.4,1-1v-4c0-0.6-0.4-1-1-1h-4c-0.6,0-1,0.4-1,1v4C35,17.6,35.4,18,36,18z M37,16v-2h2     v2H37z"/><path d="M20,46h4c0.6,0,1-0.4,1-1v-4c0-0.6-0.4-1-1-1h-4c-0.6,0-1,0.4-1,1v4C19,45.6,19.4,46,20,46z M21,44v-2h2     v2H21z"/><path d="M28,46h4c0.6,0,1-0.4,1-1v-4c0-0.6-0.4-1-1-1h-4c-0.6,0-1,0.4-1,1v4C27,45.6,27.4,46,28,46z M29,44v-2h2     v2H29z"/><path d="M36,46h4c0.6,0,1-0.4,1-1v-4c0-0.6-0.4-1-1-1h-4c-0.6,0-1,0.4-1,1v4C35,45.6,35.4,46,36,46z M37,44v-2h2     v2H37z"/><path d="M20,31h21c0.6,0,1-0.4,1-1s-0.4-1-1-1H20c-0.6,0-1,0.4-1,1S19.4,31,20,31z"/><path d="M20,37h21c0.6,0,1-0.4,1-1s-0.4-1-1-1H20c-0.6,0-1,0.4-1,1S19.4,37,20,37z"/><path d="M9,4C7.3,4,6,2.7,6,1c0-1.3-2-1.3-2,0c0,1.7-1.3,3-3,3c-1.3,0-1.3,2,0,2c1.7,0,3,1.3,3,3c0,1.3,2,1.3,2,0     c0-1.7,1.3-3,3-3C10.3,6,10.3,4,9,4z M5,6C4.7,5.6,4.4,5.3,4,5c0.4-0.3,0.7-0.6,1-1c0.3,0.4,0.6,0.7,1,1C5.6,5.3,5.3,5.6,5,6z"/><path d="M55,19v-4c0-0.6-0.4-1-1-1s-1,0.4-1,1v4c0,0.6,0.4,1,1,1S55,19.6,55,19z"/><path d="M52,18h4c0.6,0,1-0.4,1-1s-0.4-1-1-1h-4c-0.6,0-1,0.4-1,1S51.4,18,52,18z"/><path d="M8,44c0,0.6-0.4,1-1,1s-1-0.4-1-1s0.4-1,1-1S8,43.4,8,44"/><path d="M3,26c0,0.6-0.4,1-1,1s-1-0.4-1-1s0.4-1,1-1S3,25.4,3,26"/><path d="M52,36c0,0.6-0.4,1-1,1s-1-0.4-1-1s0.4-1,1-1S52,35.4,52,36"/><path d="M59,57c0,0.6-0.4,1-1,1s-1-0.4-1-1s0.4-1,1-1S59,56.4,59,57"/></g></g></g></svg>