<svg xmlns="http://www.w3.org/2000/svg" data-name="Слой 7" viewBox="0 0 100 100" x="0px" y="0px"><title>Artboard 41</title><path d="M58.07,36.42A17.09,17.09,0,0,0,66.3,24.89,1,1,0,0,0,66,24a10.17,10.17,0,0,0-4.33-2.61V11.15a1,1,0,1,0-2,0V21a10,10,0,0,0-2,0,10.22,10.22,0,0,0-7.51,4.69c-.12.2-.3.2-.43,0A10.23,10.23,0,0,0,40.31,21V11.15a1,1,0,1,0-2,0V21.4A10.17,10.17,0,0,0,34,24a1,1,0,0,0-.27.88,17.09,17.09,0,0,0,8.23,11.53,64.31,64.31,0,0,0-28.26,43,1,1,0,0,0,.46,1A31.19,31.19,0,0,0,33.3,85a31.22,31.22,0,0,0,33.4,0,31.2,31.2,0,0,0,19.18-4.57,1,1,0,0,0,.46-1A64.31,64.31,0,0,0,58.07,36.42ZM67.5,83A71,71,0,0,0,60,48a1,1,0,1,0-1.79.9,69,69,0,0,1,7.23,34.48,29.21,29.21,0,0,1-31,0,69,69,0,0,1,7.23-34.48A1,1,0,0,0,40,48,71,71,0,0,0,32.5,83a29.2,29.2,0,0,1-16.75-4A62.34,62.34,0,0,1,44.44,37.2a1,1,0,0,0-.1-1.76,15.3,15.3,0,0,1-8.57-10.38,7.91,7.91,0,0,1,6.28-2,8.21,8.21,0,0,1,6,3.76,2.25,2.25,0,0,0,3.83,0,8.21,8.21,0,0,1,6-3.76,7.92,7.92,0,0,1,6.28,2,15.3,15.3,0,0,1-8.57,10.38,1,1,0,0,0-.1,1.76A62.34,62.34,0,0,1,84.25,79.07,29.15,29.15,0,0,1,67.5,83Z"/></svg>